<svg width="200" height="101" viewBox="0 0 200 101" fill="none" xmlns="http://www.w3.org/2000/svg">
<g id="Bell_Logo_Desktop">
<g id="Group">
<path id="Path" fill-rule="evenodd" clip-rule="evenodd" d="M199.879 50.4675C199.879 64.6406 189.114 77.5637 169.565 86.859C151.153 95.6145 126.427 100.439 99.9406 100.439C62.5953 100.439 28.8077 90.5077 11.7573 74.5218C4.06496 67.306 0 58.9893 0 50.4675C0 41.9513 4.06496 33.6329 11.7573 26.4197C28.8077 10.4308 62.5953 0.5 99.9406 0.5C137.288 0.5 171.074 10.4308 188.126 26.4197C195.816 33.6329 199.879 41.9513 199.879 50.4675Z" fill="white"/>
<path id="Path_2" fill-rule="evenodd" clip-rule="evenodd" d="M194.858 50.4675C194.858 43.3701 191.342 36.3205 184.691 30.082C176.895 22.7722 164.978 16.6171 150.228 12.2816C135.181 7.8594 117.792 5.52136 99.9406 5.52136C82.0897 5.52136 64.7009 7.8594 49.6543 12.2816C34.9043 16.6171 22.9876 22.7722 15.1919 30.0825C8.53846 36.3214 5.02137 43.3705 5.02137 50.4675C5.02137 57.5662 8.53846 64.6175 15.1927 70.8598C22.9876 78.1675 34.9047 84.3226 49.6543 88.6577C64.7013 93.0808 82.0902 95.4179 99.9406 95.4179C125.692 95.4179 149.653 90.7679 167.409 82.3243C185.109 73.9073 194.858 62.594 194.858 50.4675Z" fill="black"/>
<path id="Path_3" fill-rule="evenodd" clip-rule="evenodd" d="M189.836 50.4675C189.836 55.109 187.986 59.6837 184.337 64.0645C180.08 69.1743 173.659 73.7919 165.253 77.7893C148.157 85.9196 124.962 90.3966 99.9406 90.3966C82.5628 90.3966 65.6637 88.1295 51.0701 83.8402C37.0705 79.7256 25.8513 73.9696 18.6282 67.197C14.7115 63.5235 10.0427 57.6389 10.0427 50.4675C10.0427 43.2991 14.7107 37.4175 18.6265 33.7457C25.8517 26.9701 37.0705 21.2141 51.0705 17.0991C65.6632 12.8098 82.5624 10.5427 99.9406 10.5427C117.319 10.5427 134.218 12.8098 148.812 17.0991C162.812 21.2141 174.03 26.9701 181.255 33.7444C185.17 37.4167 189.836 43.2978 189.836 50.4675Z" fill="white"/>
<path id="Fill-1" fill-rule="evenodd" clip-rule="evenodd" d="M171.232 68.3911L170.683 67.4975H170.359V68.3911H170.013V66.3005H170.812C171.324 66.3005 171.58 66.4774 171.58 66.9013C171.58 67.2825 171.346 67.4338 171.029 67.4727L171.619 68.3911H171.232ZM170.77 65.7C169.922 65.7 169.262 66.3637 169.262 67.3082C169.262 68.1915 169.838 68.9171 170.77 68.9171C171.609 68.9171 172.269 68.2641 172.269 67.3082C172.269 66.3637 171.609 65.7 170.77 65.7ZM171.235 66.877C171.235 66.6257 170.987 66.5889 170.776 66.5889H170.359V67.2052H170.746C171.007 67.2052 171.235 67.1791 171.235 66.877ZM172.688 67.3082C172.688 66.1368 171.797 65.3616 170.77 65.3616C169.73 65.3616 168.841 66.1368 168.841 67.3082C168.841 68.4205 169.641 69.2607 170.77 69.2607C171.797 69.2607 172.688 68.4778 172.688 67.3082Z" fill="black"/>
<path id="Path_4" fill-rule="evenodd" clip-rule="evenodd" d="M167.463 59.9342L154.203 59.8573V31.7402H139.615V69.1701H167.463V59.9342Z" fill="#D52F33"/>
<path id="Path_5" fill-rule="evenodd" clip-rule="evenodd" d="M136.335 59.903L123.074 59.8312V31.7141H108.482V69.1402H136.335V59.903Z" fill="#D52F33"/>
<path id="Path_6" fill-rule="evenodd" clip-rule="evenodd" d="M104.341 31.7141L75.0295 31.7316V69.1667L104.341 69.1402V59.8573H89.6342V53.8295H104.341V47.0509H89.6342V41.6047H104.341V31.7141Z" fill="#D52F33"/>
<path id="Path_7" fill-rule="evenodd" clip-rule="evenodd" d="M71.9803 57.912C71.7415 55.6543 70.2641 53.8628 69.4611 53.0718C68.1085 51.7325 65.085 50.1013 65.085 50.1013C65.085 50.1013 67.5047 49.0376 68.9974 47.6462C70.4863 46.2598 71.1825 44.391 71.1825 41.0013C71.1825 37.9342 69.8585 34.9987 67.0056 33.1265C64.8303 31.6966 60.8889 31.7051 57.3761 31.7051C56.1504 31.7051 34.9145 31.7141 34.9145 31.7141V69.1402H62.4308C62.4308 69.1402 66.6214 69.0662 68.4671 67.918C70.1239 66.8786 70.9487 65.9239 71.3885 64.4966C72.1137 62.1103 72.2423 60.4282 71.9803 57.912Z" fill="#D52F33"/>
<path id="Path_8" fill-rule="evenodd" clip-rule="evenodd" d="M58.2556 43.3227C58.2556 39.8389 54.5722 39.7077 54.5722 39.7077H50.4312V47.0509H54.6316C54.6316 47.0509 58.2556 47.0645 58.2556 43.3227Z" fill="white"/>
<path id="Path_9" fill-rule="evenodd" clip-rule="evenodd" d="M58.2872 57.491C58.2872 61.7521 54.6581 61.3525 54.6581 61.3525H50.4568V54.0021H54.5991C54.5991 54.0021 58.2872 53.8436 58.2872 57.491Z" fill="white"/>
</g>
</g>
</svg>
