<?xml version="1.0" encoding="UTF-8" standalone="no"?> <svg xmlns:dc="http://purl.org/dc/elements/1.1/" xmlns:cc="http://creativecommons.org/ns#" xmlns:rdf="http://www.w3.org/1999/02/22-rdf-syntax-ns#" xmlns:svg="http://www.w3.org/2000/svg" xmlns="http://www.w3.org/2000/svg" xmlns:sodipodi="http://sodipodi.sourceforge.net/DTD/sodipodi-0.dtd" xmlns:inkscape="http://www.inkscape.org/namespaces/inkscape" id="Livello_1" data-name="Livello 1" viewBox="0 0 319.2 196.79" version="1.1" sodipodi:docname="Logo Stilo_bianco_2.svg" inkscape:version="0.92.3 (2405546, 2018-03-11)"><metadata id="metadata37"></metadata><defs id="defs4"><style id="style2">.cls-1{fill:#e2001a;}.cls-2{fill:#fff;}</style></defs><polygon class="cls-1" points="217.72 33.89 273.04 0 273.04 126.14 217.64 159.97 273.04 126.14 273.04 0 217.72 33.89 273.04 0 273.04 126.14 217.64 159.97 217.72 33.89" id="polygon6"></polygon><path class="cls-2" d="M289,160.07H258.07c-16.95,0-30.75-12.34-30.75-27.51V114.41c0-15.17,13.8-27.5,30.75-27.5H289c17,0,30.74,12.33,30.74,27.5v18.18C319.74,147.76,305.91,160.07,289,160.07Zm-27.12-51.25c-6.72,0-12.19,4.07-12.19,9.09V129c0,5,5.47,9.09,12.19,9.09h23.07c6.73,0,12.18-4.08,12.18-9.09V117.91c0-5-5.45-9.09-12.18-9.09H261.84" transform="translate(-0.5 0)" id="path8"></path><path class="cls-2" d="M51.58,160.07H1V138H51.58a9.54,9.54,0,0,0,.62-19.07c-.21,0-.41,0-.62,0H26.22a26.23,26.23,0,0,1,0-52.45h57V88.57h-57a4.11,4.11,0,0,0,0,8.21H51.58a31.66,31.66,0,0,1,0,63.32h0Z" transform="translate(-0.5 0)" id="path10"></path><path class="cls-2" d="M185.53,78.25H162.29V66.45h23.24Z" transform="translate(-0.5 0)" id="path12"></path><path class="cls-2" d="M185.53,160.07H162.29V86.56h23.24Z" transform="translate(-0.5 0)" id="path14"></path><path class="cls-2" d="M153,160.07H124c-9.31,0-17.57-3.25-23.25-9.14S92.27,137,92.63,127.56V66.45h22.11V86.56H153v22.13H114.74v18.93c0,5.69,5.47,10,10.59,10.36H153Z" transform="translate(-0.5 0)" id="path16"></path><rect class="cls-2" x="194.37" y="33.89" width="23.27" height="126.14" id="rect18"></rect></svg> 